<svg version="1.1" width="72" height="139" viewBox="-1 -1 72 139" xmlns="http://www.w3.org/2000/svg" xmlns:xlink="http://www.w3.org/1999/xlink">
  <!-- Exported by Scratch - http://scratch.mit.edu/ -->
  <g id="ID0.16576257394626737">
    <path id="ID0.9982273718342185" fill="#910063" d="M 71.876 128.768 C 70.586 131.911 70.337 133.848 68.383 136.680 C 66.595 139.257 64.620 139.994 62.977 142.653 C 64.349 143.296 65.410 142.653 66.886 142.341 C 70.379 141.606 71.959 140.112 74.869 138.153 C 75.327 139.882 74.620 141.799 76.366 142.341 C 77.947 142.827 78.945 142.341 80.607 142.188 C 80.836 139.608 79.609 138.250 78.695 135.829 C 78.174 134.413 78.529 133.287 77.529 132.104 C 76.096 130.396 74.017 129.582 71.876 128.768 Z " transform="matrix(1, 0, 0, 1, -43.5, -7)"/>
    <path id="ID0.33612593030557036" fill="#910063" d="M 93.895 132.956 C 93.229 134.217 93.936 135.206 94.395 136.525 C 95.059 138.382 95.309 139.433 95.975 141.334 C 96.223 142.053 96.037 142.904 96.805 143.119 C 97.803 143.410 98.991 143.448 99.466 142.576 C 100.278 141.121 98.759 140.093 98.635 138.464 C 101.503 139.259 102.751 140.676 105.704 140.947 C 108.096 141.160 110.631 141.896 111.775 139.937 C 106.388 136.931 103.791 134.741 99.379 130.625 C 98.316 131.925 97.423 132.643 93.895 132.956 Z " transform="matrix(1, 0, 0, 1, -43.5, -7)"/>
    <path id="ID0.7083666506223381" fill="#663C2B" d="M 87.344 43.429 C 88.280 41.120 87.406 39.588 87.593 37.145 C 87.677 35.904 86.575 34.604 85.266 34.818 C 83.996 35.012 83.164 36.408 82.106 35.749 C 81.024 35.089 80.276 34.178 79.030 34.508 C 77.659 34.876 77.302 36.254 75.871 36.292 C 74.623 36.331 74.290 34.682 73.043 34.818 C 71.754 34.953 71.297 36.059 70.008 36.059 L 70.008 42.032 C 67.595 42.032 65.538 43.720 63.812 42.110 C 62.585 40.966 62.793 39.763 61.982 38.386 C 61.399 37.417 60.381 37.436 59.321 36.912 C 57.097 35.807 58.905 33.227 58.905 30.861 C 58.905 29.891 57.907 29.562 57.741 28.611 C 57.471 27.021 58.012 25.993 58.905 24.577 C 60.298 22.385 58.011 20.271 59.405 18.060 C 60.237 16.741 61.608 16.818 62.897 15.888 C 64.249 14.918 64.520 13.890 65.559 12.630 C 66.682 11.273 67.971 10.884 69.800 10.768 C 71.692 10.652 72.399 9.120 74.291 8.984 C 76.245 8.848 77.451 9.895 79.278 9.294 C 80.692 8.829 81.630 8.266 83.104 8.596 C 84.600 8.945 85.331 10.128 86.846 9.837 C 89.444 9.333 91.897 10.012 93.164 12.165 C 94.475 14.376 97.572 14.201 98.154 16.664 C 98.404 17.770 97.925 18.875 98.902 19.535 C 100.171 20.388 101.812 20.698 101.812 22.172 C 101.812 24.965 99.377 26.284 99.650 29.077 C 99.818 30.842 100.816 31.734 100.816 33.499 C 100.816 34.837 99.859 35.575 98.654 36.291 C 96.158 37.785 96.409 40.403 93.830 41.722 C 91.544 42.904 89.840 42.652 87.344 43.429 Z " transform="matrix(1, 0, 0, 1, -43.5, -7)"/>
    <path id="ID0.4045895882882178" fill="#B7854D" d="M 70.047 36.523 C 69.589 39.122 69.943 40.596 70.130 43.195 C 70.401 46.667 70.650 48.916 72.708 51.806 C 74.454 54.269 76.950 55.220 80.109 54.910 C 83.706 54.561 85.620 52.078 86.679 48.859 C 87.924 46.047 87.674 44.088 87.674 41.024 C 87.674 39.066 88.672 37.785 87.841 35.982 C 87.403 35.051 86.345 34.974 85.265 34.974 C 84.203 34.974 83.827 35.982 82.769 35.982 C 81.707 35.982 81.398 35.051 80.359 34.818 C 79.255 34.585 78.575 35.231 77.613 35.826 C 75.611 37.065 75.430 35.186 74.038 34.818 C 72.417 34.391 71.751 36.640 70.047 36.523 Z " transform="matrix(1, 0, 0, 1, -43.5, -7)"/>
    <path id="ID0.8394559202715755" fill="#B7854D" d="M 74.454 52.894 C 74.704 55.862 73.145 58.053 73.872 60.963 C 74.642 64.046 76.658 66.626 80.027 66.626 C 82.644 66.626 83.706 64.143 84.267 61.738 C 85.120 58.131 83.685 56.016 83.685 52.351 C 80.089 52.350 77.469 54.754 74.454 52.894 Z " transform="matrix(1, 0, 0, 1, -43.5, -7)"/>
    <path id="ID0.2635657382197678" fill="#B7854D" d="M 70.878 57.547 C 68.841 57.683 68.009 58.866 66.304 59.875 C 62.208 62.299 60.877 65.014 58.902 69.185 C 56.470 74.306 55.243 77.154 53.164 82.373 C 52.603 83.769 52.208 84.602 52.083 86.100 C 52 87.184 52.333 88.172 51.417 88.813 C 48.923 90.559 46.989 91.723 46.178 94.555 C 45.596 96.629 48.756 98.938 50.835 97.966 C 53.579 96.688 53.787 94.477 55.160 91.914 C 55.471 92.809 55.575 93.408 56.241 94.088 C 57.052 94.900 58.965 94.318 59.152 93.234 C 59.547 91.140 58.299 89.838 56.740 88.269 C 55.139 86.660 57.073 84.794 57.905 82.758 C 58.799 80.609 59.256 79.384 60.566 77.404 C 63.519 72.983 66.055 71.276 70.129 67.785 C 71.356 66.738 70.545 65.380 70.545 63.828 C 70.545 61.504 70.878 59.875 70.878 57.547 Z " transform="matrix(1, 0, 0, 1, -43.5, -7)"/>
    <path id="ID0.7065472141839564" fill="#B7854D" d="M 86.762 67.789 C 91.253 69.884 92.582 72.734 94.162 76.943 C 94.974 79.131 95.369 80.433 95.576 82.758 C 95.743 84.603 96.846 86.540 95.161 87.490 C 93.267 88.555 91.314 89.876 91.917 91.836 C 92.167 92.690 93.331 92.862 94.246 92.612 C 95.182 92.356 95.432 91.369 96.409 91.447 C 98.467 91.639 98.092 94.024 98.902 95.792 C 99.609 97.308 101.978 98.196 103.226 97.034 C 105.099 95.288 104.413 92.764 102.978 90.672 C 101.999 89.256 100.357 88.944 100.150 87.259 C 99.609 82.974 100.109 80.508 98.984 76.321 C 97.904 72.268 98.339 69.592 95.909 66.082 C 94.038 63.367 92.603 62.048 90.005 59.953 C 89.027 59.177 88.092 59.177 87.178 58.324 L 86.762 67.789 Z " transform="matrix(1, 0, 0, 1, -43.5, -7)"/>
    <path id="ID0.1476341742090881" fill="#910063" d="M 98.839 131.654 C 95.834 127.198 92.438 109.663 92.252 107.508 C 91.773 102.038 92.147 98.647 89.506 93.699 C 87.801 90.515 86.699 88.829 85.266 85.553 C 83.872 82.370 83.456 80.141 84.268 76.785 C 84.872 74.283 85.954 73.060 86.346 70.500 C 87.200 65.109 88.466 62.652 86.264 56.691 C 85.410 56.594 84.953 56.225 84.102 56.225 C 83.831 59.154 84.456 60.958 83.270 63.673 C 82.458 65.516 81.065 66.931 78.946 66.776 C 73.978 66.408 73.092 60.727 73.708 55.915 C 73.001 56.342 72.702 55.767 72.100 56.330 C 70.790 57.552 70.777 59.289 70.715 61.035 C 70.590 63.983 70.798 65.670 71.297 68.560 C 72.420 74.941 71.442 79.383 67.721 84.852 C 65.642 87.915 64.165 89.719 63.562 93.307 C 62.855 97.440 64.269 99.826 64.893 104.014 C 65.497 107.952 67.201 121.430 68.220 125.270 C 69.924 128.454 72.357 129.051 75.538 130.703 C 78.571 132.272 80.300 133.496 83.768 133.885 C 86.596 134.214 88.175 133.986 91.003 133.810 C 94.143 133.616 96.509 133.614 98.839 131.654 Z " transform="matrix(1, 0, 0, 1, -43.5, -7)"/>
    <path id="ID0.18786859046667814" fill="#272525" d="M 70.238 41.850 C 64.855 40.412 64.228 47.177 70.338 46.979 C 70.770 45.284 70.458 43.794 70.238 41.850 Z " transform="matrix(1, 0, 0, 1, -43.5, -7)"/>
    <path id="ID0.8273608982563019" fill="#B7854D" d="M 69.002 42.693 C 68.292 42.713 67.469 42.680 67.418 43.600 C 67.313 45.487 68.448 45.873 69.420 45.638 C 69.508 44.825 69.523 43.127 69.002 42.693 Z " transform="matrix(1, 0, 0, 1, -43.5, -7)"/>
    <path id="ID0.762392389588058" fill="#272525" d="M 87.462 41.850 C 92.846 40.412 93.475 47.177 87.363 46.979 C 86.932 45.284 87.244 43.794 87.462 41.850 Z " transform="matrix(1, 0, 0, 1, -43.5, -7)"/>
    <path id="ID0.6370958723127842" fill="#B7854D" d="M 88.700 42.693 C 89.409 42.713 90.232 42.680 90.283 43.600 C 90.388 45.487 89.253 45.873 88.281 45.638 C 88.193 44.825 88.178 43.127 88.700 42.693 Z " transform="matrix(1, 0, 0, 1, -43.5, -7)"/>
    <path id="ID0.001507139764726162" fill="#272525" d="M 96.783 39.970 C 96.762 42.061 92.075 43.784 91.484 42.542 C 90.878 41.267 92.625 41.800 93.161 41.332 C 96.514 40.335 93.421 36.774 96.676 35.480 C 98.020 34.946 99.059 33.628 99.164 32.251 C 99.269 30.878 98.435 29.459 98.482 28.147 C 98.504 27.461 100.650 24.576 100.359 22.636 C 100.068 20.696 98.318 20.704 97.963 19.757 C 97.641 18.896 98.177 18.034 97.572 16.585 C 96.967 15.136 95.301 15.601 93.672 14.665 C 92.788 14.158 92.333 11.465 90.754 10.766 C 89.174 10.068 87.133 12.014 84.665 10.925 C 84.033 10.647 83.896 10.224 83.428 9.855 C 81.584 8.407 78.737 11.312 76.561 10.712 C 75.489 10.418 74.884 9.700 73.695 10.310 C 72.650 10.846 71.748 11.467 70.780 11.903 C 69.814 12.337 68.521 12.059 67.266 12.465 C 66.011 12.871 65.352 15.117 64.320 16.439 C 63.743 17.177 61.449 17.520 60.316 18.992 C 59.184 20.463 60.786 22.014 60.399 23.957 C 60.226 24.827 58.731 25.303 58.482 26.621 C 58.232 27.940 59.656 29.177 60.265 30.695 C 60.593 31.511 60.060 32.947 59.485 33.887 C 57.521 37.096 64.512 35.871 64.232 39.366 C 64.152 40.370 65.516 41.872 66.313 42.484 C 68.783 42.179 64.654 44.450 62.287 42.744 C 60.169 41.221 62.238 37.879 59.486 37.611 C 57.644 37.432 57.058 36.868 56.717 36.339 C 54.806 33.374 60.223 32.162 56.825 28.722 C 54.626 26.496 58.634 24.598 57.744 22.568 C 56.995 20.859 57 19.479 58.014 17.826 C 59.764 14.976 63.027 16.743 64.341 12.379 C 64.966 10.302 68.291 9.911 70.181 9.957 C 71.209 8.607 71.842 8.177 73.481 7.863 C 74.553 7.658 77.531 8.238 78.031 8.165 C 78.531 8.092 80.484 6.958 82.023 7.002 C 83.562 7.045 84.861 8.773 85.917 8.898 C 86.973 9.023 87.846 7.310 89.918 7.688 C 93.939 8.422 91.602 12.285 96.784 12.883 C 99.846 13.237 98.015 17.625 101.326 19.895 C 102.439 20.658 102.839 22.236 102.625 23.426 C 102.307 25.194 99.912 27.643 100.678 29.328 C 103.593 35.745 96.825 35.980 96.783 39.970 Z " transform="matrix(1, 0, 0, 1, -43.5, -7)"/>
    <path id="ID0.004272386897355318" fill="#272525" d="M 83.016 35.042 C 84.268 34.973 85.479 33.312 86.346 33.344 C 87.214 33.376 87.344 34.973 88.092 35.128 C 88.841 35.283 89.235 34.185 89.235 34.185 C 89.714 33.383 90.391 35.597 89.883 36.353 C 88.246 38.804 87.089 35.903 85.721 35.749 C 84.352 35.594 83.944 37.289 82.770 37.378 C 81.598 37.468 80.257 35.864 79.446 35.749 C 78.133 35.563 77.258 37.220 76.037 37.145 C 74.816 37.070 74.684 35.869 73.380 35.737 C 72.076 35.606 70.400 39.323 68.200 35.900 C 68.441 34.656 69.761 35.774 70.580 35.295 C 71.787 34.589 72.486 33.243 73.793 33.283 C 75.101 33.323 74.833 35.806 76.118 35.750 C 77.363 35.696 77.861 32.843 79.275 32.823 C 80.691 32.800 81.766 35.110 83.016 35.042 Z " transform="matrix(1, 0, 0, 1, -43.5, -7)"/>
    <path id="ID0.24017224041745067" fill="#272525" d="M 69.464 47.541 C 68.632 44.244 69.138 38.145 69.800 36.591 C 71.210 36.990 70.458 39.490 70.612 40.928 C 70.949 44.080 70.998 47.768 73.046 50.512 C 74.321 52.221 76.325 54.794 80.150 53.785 C 88.212 51.660 86.761 40.518 86.835 37.094 C 86.852 36.348 88.742 36.237 88.791 36.773 C 89.550 45.057 87.852 51.923 82.509 54.648 C 76.439 57.743 70.882 53.159 69.464 47.541 Z " transform="matrix(1, 0, 0, 1, -43.5, -7)"/>
    <path id="ID0.8151373495347798" fill="#272525" d="M 75.743 42.614 C 75.472 42.225 76.346 41.280 76.721 41.665 C 78.385 43.372 79.985 43.079 81.172 41.642 C 81.574 41.157 82.698 42.022 82.106 42.653 C 80.361 44.512 77.199 44.708 75.743 42.614 Z " transform="matrix(1, 0, 0, 1, -43.5, -7)"/>
    <path id="ID0.9827086012810469" fill="#272525" d="M 81.210 46.073 C 85.438 49.525 80.022 55.439 76.182 52.026 C 73.181 49.357 77.316 42.893 81.210 46.073 Z " transform="matrix(1, 0, 0, 1, -43.5, -7)"/>
    <path id="ID0.6076936176978052" fill="#7B6EC9" d="M 81.038 48.943 C 81.988 51.185 77.605 52.486 77.103 50.210 C 76.494 47.438 79.412 45.118 81.038 48.943 Z " transform="matrix(1, 0, 0, 1, -43.5, -7)"/>
    <path id="ID0.8019794230349362" fill="#272525" d="M 83.699 55.253 C 84.558 55.041 85.637 55.142 86.294 55.606 C 87.789 56.664 88.022 60.278 88.348 61.911 C 89.887 69.603 81.802 78.414 86.294 85.014 C 87.007 86.061 88.012 86.993 88.740 88.069 C 92.277 93.274 92.789 97.915 93.052 103.881 C 93.298 109.443 94.740 116.203 96.296 121.585 C 97.087 124.320 99.789 129.193 100.459 130.917 C 101.109 132.588 98.436 132.716 97.654 132.945 L 98.351 132.226 C 95.431 127.087 93.564 121.773 92.130 116.134 C 90.359 109.179 91.333 101.788 89.806 95.806 C 88.670 91.371 84.029 88.176 83.046 83.702 C 80.916 73.977 89.203 68.742 86.011 57.121 L 85.140 56.888 C 85.328 63.537 84.597 68.176 78.777 68.021 C 72.956 67.866 72.735 63.219 73.289 56.462 C 73.261 56.118 72.519 56.466 72.083 56.384 C 70.171 62.979 72.082 67.443 73.208 71.193 C 75.811 79.865 66.296 87.683 65.421 96.265 C 64.793 102.439 66.920 108.281 67.855 114.322 C 68.662 119.542 68.209 125.228 73.424 128.597 C 77.072 130.953 81.466 131.777 85.753 132.482 C 88.877 132.996 96.363 132.306 98.354 132.230 C 98.674 132.215 97.518 133.252 97.434 133.441 C 93.122 135.548 87.754 135.537 83.051 134.904 C 76.257 133.988 69.549 129.777 66.936 125.570 C 65.790 116.900 60.581 99.461 62.827 91.925 C 64.869 85.078 72.110 79.529 70.722 71.949 C 69.720 66.482 68.642 60.455 71.749 55.354 L 74.506 55 C 74.342 57.105 73.884 58.643 74.454 61.038 C 75.512 65.470 80.539 67.141 83.051 62.970 C 84.423 60.689 83.714 57.734 83.699 55.253 Z " transform="matrix(1, 0, 0, 1, -43.5, -7)"/>
    <path id="ID0.8417591252364218" fill="#272525" d="M 71.194 58.528 C 68.300 59.875 67.214 60.842 65.461 62.401 C 59.714 67.507 56.699 74.503 54.215 81.379 C 53.294 83.930 53.459 86.525 53.026 89.149 C 51.499 90.460 45.608 93.641 46.808 96.161 C 47.225 97.038 48.957 97.128 49.782 96.867 C 52.432 96.028 54.284 92.705 54.973 90.360 C 56.301 90.946 56.718 92.464 57.190 93.636 C 58.807 94.598 58.658 91.783 58.109 90.962 C 57.338 89.809 55.148 89.774 55.243 88.190 C 55.721 80.311 62.487 71.867 68.761 67.002 C 69.114 66.882 69.527 66.606 69.896 66.851 C 70.116 67.373 70.717 68.255 70.329 68.818 C 69.463 70.073 67.416 71.472 66.278 72.645 C 61.945 77.103 58.229 82.372 57.082 88.391 C 63.787 91.625 58.206 98.451 55.135 93.235 C 52.410 103.415 40.775 100.621 44.861 93.485 C 46.328 90.923 49.392 89.899 51.511 87.936 C 52.022 77.745 56.997 66.402 65.355 59.587 C 66.665 58.518 69.068 57.195 70.815 57.065 C 70.815 57.064 71.814 58.240 71.194 58.528 Z " transform="matrix(1, 0, 0, 1, -43.5, -7)"/>
    <path id="ID0.24742712685838342" fill="#272525" d="M 101.039 87.327 C 103.417 89.137 106.152 92.359 105.310 95.449 C 105.056 96.383 103.144 100.760 99.363 97.970 C 97.654 96.709 98.312 91.565 96.243 92.149 C 95.623 92.325 94.801 93.485 94.279 93.733 C 93.576 94.071 91.972 93.795 91.413 93.280 C 87.723 89.858 94.773 87.504 94.659 85.412 C 94.443 81.546 91.670 72.181 88.343 69.730 C 86.063 68.049 86.057 66.072 87.684 66.496 C 94.800 71.677 96.663 79.657 96.497 87.683 C 95.402 88.081 91.010 90.668 93.092 92.072 C 94.676 93.138 96.502 88.590 97.628 90.387 C 98.049 91.062 99.356 97.043 101.680 96.484 C 102.576 96.269 103.813 95.566 103.368 93.635 C 102.941 91.808 100.214 88.875 98.931 87.581 C 99.271 86.862 99.433 85.792 99.470 85.009 C 99.658 81.049 97.915 72.146 96.119 68.565 C 94.126 64.596 91.537 61.907 87.791 59.385 C 87.151 58.955 86.782 58.154 87.034 57.418 C 87.229 56.848 87.881 57.011 88.331 57.166 C 91.864 58.382 96.011 64.261 97.632 67.355 C 100.464 72.758 101.889 81.398 101.039 87.327 Z " transform="matrix(1, 0, 0, 1, -43.5, -7)"/>
    <path id="ID0.4175958135165274" fill="#272525" d="M 72.957 129.854 C 72.574 133.930 67.532 139.289 64.610 141.915 C 68.135 141.716 72.106 140.522 74.073 137.577 C 74.572 136.830 74.718 135.931 75.154 135.153 C 76.238 135.196 76.901 140.493 76.967 141.132 C 77.610 141.236 78.258 141.379 78.913 141.385 C 78.850 140.104 77.200 134.335 76.928 133.098 L 77.199 132.494 C 79.371 132.090 81.412 141.270 81.509 142.850 C 80.194 143.487 76.643 143.704 75.399 142.850 C 75.427 142.395 74.708 139.821 74.613 139.393 C 71.100 143.274 65.249 144.475 60.069 143.479 C 65.913 140.745 70.046 130.608 70.632 129.750 C 71.143 129.007 72.395 129.320 72.957 129.854 Z " transform="matrix(1, 0, 0, 1, -43.5, -7)"/>
    <path id="ID0.49832957657054067" fill="#272525" d="M 100.320 131.173 C 103.056 134.942 114.591 140.182 114.054 141.817 C 109.496 143.337 104.361 142.340 100.158 140.356 C 100.341 141.569 100.853 142.718 101.238 143.884 C 99.529 144.487 97.634 144.778 95.884 144.136 C 94.606 142.096 92.749 135.789 94.102 133.698 C 95.028 133.644 95.574 140.056 97.079 141.816 L 98.483 141.462 C 98 139.627 96.807 138.007 96.536 136.115 C 98.030 135.996 101.968 141.551 109.891 140.251 C 106.734 138.729 100.816 135.439 100.320 131.173 Z " transform="matrix(1, 0, 0, 1, -43.5, -7)"/>
    <path id="ID0.7361723184585571" fill="#272525" d="M 82.893 73.145 C 83.602 73.336 83.020 74.538 81.897 74.655 C 80.774 74.771 76.360 74.676 75.414 74.577 C 74.465 74.478 73.756 73.218 74.543 73.083 C 75.330 72.948 82.184 72.955 82.893 73.145 Z " transform="matrix(1, 0, 0, 1, -43.5, -7)"/>
    <path id="ID0.5225288644433022" fill="#272525" d="M 76.137 39.643 C 76.346 39.969 75.602 40.721 75.305 40.395 C 73.993 38.951 72.672 39.148 71.655 40.295 C 71.311 40.683 70.415 39.942 70.920 39.441 C 72.409 37.963 75.007 37.887 76.137 39.643 Z " transform="matrix(1, 0, 0, 1, -43.5, -7)"/>
    <path id="ID0.5392356407828629" fill="#272525" d="M 86.781 39.643 C 86.990 39.969 86.248 40.721 85.951 40.395 C 84.640 38.951 83.318 39.148 82.301 40.295 C 81.957 40.683 81.061 39.942 81.567 39.441 C 83.053 37.963 85.652 37.887 86.781 39.643 Z " transform="matrix(1, 0, 0, 1, -43.5, -7)"/>
  </g>
  <path id="ID0.040572504978626966" fill="none" stroke="#000000" stroke-width="2" stroke-linecap="round" d="M 258 133.500 L 274 124.500 " transform="matrix(1, 0, 0, 1, -205, -94)"/>
  <path id="ID0.6049953713081777" fill="none" stroke="#000000" stroke-width="2" stroke-linecap="round" d="M 258 140.500 L 274 146 " transform="matrix(1, 0, 0, 1, -205, -94)"/>
  <path id="ID0.16190727706998587" fill="none" stroke="#000000" stroke-width="2" stroke-linecap="round" d="M 262 136.500 L 269.500 136.500 " transform="matrix(1, 0, 0, 1, -205, -94)"/>
</svg>